<svg width="17" height="17" viewBox="0 0 17 17" fill="none" xmlns="http://www.w3.org/2000/svg">
<g clip-path="url(#clip0_1169_106284)">
<path fill-rule="evenodd" clip-rule="evenodd" d="M3.03021 6.60687C4.01378 6.60687 4.81853 7.41162 4.81853 8.3952C4.81853 9.37877 4.01378 10.1835 3.03021 10.1835C2.04663 10.1835 1.24188 9.37877 1.24188 8.3952C1.24188 7.41162 2.04663 6.60687 3.03021 6.60687ZM8.39517 6.60687C9.37875 6.60687 10.1835 7.41162 10.1835 8.3952C10.1835 9.37877 9.37875 10.1835 8.39517 10.1835C7.41159 10.1835 6.60685 9.37877 6.60685 8.3952C6.60685 7.41162 7.41159 6.60687 8.39517 6.60687ZM13.7601 6.60687C14.7437 6.60687 15.5485 7.41162 15.5485 8.3952C15.5485 9.37877 14.7437 10.1835 13.7601 10.1835C12.7766 10.1835 11.9718 9.37877 11.9718 8.3952C11.9718 7.41162 12.7766 6.60687 13.7601 6.60687Z" fill="#2E2E2E"/>
</g>
<defs>
<clipPath id="clip0_1169_106284">
<path d="M0 8.39518C0 3.75865 3.75865 0 8.39518 0C13.0317 0 16.7904 3.75865 16.7904 8.39518C16.7904 13.0317 13.0317 16.7904 8.39518 16.7904C3.75865 16.7904 0 13.0317 0 8.39518Z" fill="white"/>
</clipPath>
</defs>
</svg>
