<svg width="14" height="14" viewBox="0 0 14 14" fill="none" xmlns="http://www.w3.org/2000/svg">
<g clip-path="url(#clip0_3003_2337)">
<path d="M6.99957 0C3.13382 0 0 3.13412 0 7.00025C0 10.8664 3.13382 14.0005 6.99957 14.0005C10.8654 14.0005 13.9991 10.8664 13.9991 7.00025C13.9937 3.13639 10.863 0.00547678 6.99957 0ZM12.8756 6.4633H10.39C10.39 4.72793 9.95958 3.01965 9.1372 1.49153C11.2243 2.30702 12.6716 4.23173 12.8756 6.4633ZM6.99957 12.9266C5.96555 12.9266 4.84203 10.6496 4.72273 7.54715H9.2764C9.15714 10.6496 8.01869 12.9266 6.99957 12.9266ZM4.72273 6.4633C4.84203 3.35098 5.96555 1.09379 6.99957 1.09379C8.03361 1.09379 9.15714 3.35098 9.2764 6.4633H4.72273ZM4.85695 1.49153C4.04324 3.02189 3.62137 4.73004 3.62904 6.4633H1.1434C1.34199 4.23724 2.77889 2.31349 4.85695 1.49153ZM1.12352 7.54715H3.60916C3.60065 9.28055 4.02257 10.9889 4.83707 12.5189C2.75754 11.6989 1.31984 9.77411 1.12352 7.54715ZM9.1372 12.5189C9.94961 10.9968 10.3732 9.2974 10.3701 7.57201H12.8558C12.6395 9.78113 11.203 11.6825 9.1372 12.4941V12.5189Z" fill="white"/>
</g>
<defs>
<clipPath id="clip0_3003_2337">
<rect width="14" height="14" fill="white"/>
</clipPath>
</defs>
</svg>
