<svg width="17" height="17" viewBox="0 0 17 17" fill="none" xmlns="http://www.w3.org/2000/svg">
<g clip-path="url(#clip0_5433_115)">
<path fill-rule="evenodd" clip-rule="evenodd" d="M14.8331 5.95118L8.72303 12.1209C8.5442 12.2997 8.24615 12.2997 8.06732 12.1209L1.95721 5.95118C1.77838 5.77234 1.77838 5.47429 1.95721 5.29546L2.61293 4.63974C2.79176 4.46091 3.08982 4.46091 3.26865 4.63974L8.06732 9.49802C8.24615 9.67685 8.5442 9.67685 8.72303 9.49802L13.5217 4.66954C13.7005 4.49071 13.9986 4.49071 14.1774 4.66954L14.8331 5.32526C14.9822 5.5041 14.9822 5.77234 14.8331 5.95118V5.95118Z" fill="#2E2E2E"/>
</g>
<defs>
<clipPath id="clip0_5433_115">
<path d="M0 8.39518C0 3.75865 3.75865 0 8.39518 0C13.0317 0 16.7904 3.75865 16.7904 8.39518C16.7904 13.0317 13.0317 16.7904 8.39518 16.7904C3.75865 16.7904 0 13.0317 0 8.39518Z" fill="white"/>
</clipPath>
</defs>
</svg>
