<svg width="104" height="32" viewBox="0 0 104 32" fill="none" xmlns="http://www.w3.org/2000/svg">
<g clip-path="url(#clip0_5433_2)">
<path d="M26.033 6.83012C26.2809 7.75143 27.525 12.1432 22.7803 16.0524C22.7803 12.9306 22.3888 11.596 21.7679 10.6516C20.4474 8.64272 19.0944 8.90826 19.0944 6.57382C19.0944 4.23939 20.3061 3.44739 22.2313 3.44739C24.1565 3.44739 25.6577 5.42392 26.0353 6.83012H26.033Z" fill="white"/>
<path d="M26.8207 18.3799C26.8207 19.7815 21.7054 26.8056 13.5019 24.9745V20.9129C13.5019 20.7351 13.6385 20.6312 13.7173 20.6982C14.8154 21.6287 15.9993 22.0374 16.9654 22.0374C19.6875 22.0374 21.6428 20.4026 22.5162 17.103C22.873 17.0776 23.3387 17.0661 23.663 17.0707C25.5465 17.0938 26.8207 17.9273 26.8207 18.3799Z" fill="white"/>
<path d="M17.1947 14.9995C17.1947 17.3963 16.3375 18.4977 15.1676 18.4977C13.9976 18.4977 13.0849 16.9552 13.0849 14.9995C13.0849 13.0437 13.9119 11.5267 15.1676 11.5267C16.4232 11.5267 17.1947 12.4388 17.1947 14.9995Z" fill="white"/>
<path d="M18.0426 8.08393C17.7762 8.03775 17.4936 8.01235 17.1855 8.01235C15.6703 8.01235 14.7181 8.44183 13.5551 9.81802C13.1613 9.05603 12.4408 8.33561 11.3867 8.33561H7.72859V23.088C1.37151 19.3636 -0.326652 12.5127 0.0486566 10.3306C2.29588 10.4923 3.79016 11.0464 5.25897 12.0416C6.6351 3.30192 14.2548 0 15.8255 0C17.3963 0 17.8457 4.36408 18.0426 8.08393Z" fill="white"/>
<path d="M4.65661 5.79568C5.39565 7.77221 4.38324 10.1228 4.38324 10.1228C4.38324 10.1228 2.19394 9.56633 1.25566 7.05872C0.410059 4.80048 1.57305 2.77546 1.57305 2.77546C1.57305 2.77546 3.74846 3.36657 4.65661 5.79568Z" fill="white"/>
<path d="M11.6971 31.4098C1.75608 29.8119 0.220089 20.8529 0.220089 19.8669C0.220089 18.881 0.894255 19.0911 1.3159 19.7099C4.14462 23.8731 8.80818 26.2653 13.8239 26.8102C21.1285 27.6022 24.6244 23.2289 25.0113 24.6674C25.2708 25.6349 19.9169 32.7283 11.6971 31.4075V31.4098Z" fill="white"/>
<path d="M66.0405 15.9577C66.0405 19.3312 64.6227 21.4486 61.9237 21.4486C59.2247 21.4486 60.0101 20.9683 59.3428 20.1071V24.3672H56.5836C55.8979 24.3672 55.3419 23.8131 55.3419 23.1296V18.9064C54.0677 20.3218 52.7078 20.9568 50.9656 21.2708C47.6434 21.8712 45.6325 20.2271 45.1437 19.7376C44.8448 19.4398 44.6085 19.0657 44.3537 18.6662C43.6169 17.5071 43.8857 16.0455 43.9668 15.3274C44.1706 13.5102 45.8943 11.6837 48.584 11.4644C48.9199 11.4366 49.2535 11.4274 49.5779 11.4366C51.8529 11.499 53.7572 12.4619 53.9125 14.3506C54.1163 16.8028 51.8019 17.6133 49.9717 17.7634C49.4991 17.8027 48.4821 17.7773 47.8635 17.6664C47.8635 17.6664 48.2944 19.068 50.7826 18.724C51.5448 18.6201 55.3419 17.6572 55.3419 14.3876V11.6837H57.9528C58.6316 11.6837 59.2108 12.1732 59.322 12.8405C59.9591 11.9793 60.851 11.432 61.9214 11.432C64.4512 11.432 66.0382 13.5471 66.0382 15.9554L66.0405 15.9577ZM47.6596 15.7153C48.0581 15.803 48.6558 15.8723 49.5964 15.7222C50.0528 15.6506 50.9748 15.3597 50.9748 14.7132C50.9748 14.0666 50.6783 13.9212 49.645 13.9212C48.6118 13.9212 47.6596 14.6185 47.6596 15.7153ZM59.227 16.3965C59.227 17.7819 59.8201 18.814 60.6495 18.814C61.4789 18.814 62.0395 17.7819 62.0395 16.3965C62.0395 15.011 61.4789 13.9373 60.6495 13.9373C59.8201 13.9373 59.227 14.9441 59.227 16.3965Z" fill="white"/>
<path d="M97.8283 11.4851C100.884 11.4851 103.363 13.5517 103.363 16.4634C103.363 19.3751 100.991 21.4278 97.8445 21.4278C94.6984 21.4278 93.6558 20.2941 92.838 18.4884C91.8372 19.8623 90.278 20.9707 88.6309 21.2685C85.3087 21.8689 83.2978 20.2248 82.8089 19.7353C82.5101 19.4375 82.2738 19.0634 82.0189 18.6639C81.2822 17.5048 81.551 16.0432 81.632 15.3251C81.8359 13.5079 83.4113 11.7645 86.0987 11.5429C86.43 11.5198 86.9095 11.5036 87.2408 11.5152C89.5158 11.5775 91.1816 12.612 91.1816 14.346C91.1816 16.0801 90.4217 15.6991 89.8796 15.6991H88.6726C88.4432 15.6991 88.4154 15.5583 88.4154 15.4636C88.4154 14.5931 87.9057 13.9142 87.2362 13.9142C86.1543 13.9142 85.5705 14.8633 85.5172 15.8561C85.4268 17.5533 86.0917 19.0103 88.5799 18.6662C89.2934 18.567 91.4526 17.8535 92.5484 15.0734C92.604 14.8725 92.6712 14.6785 92.7523 14.4915C92.7523 14.4846 92.7569 14.4777 92.7593 14.4707C93.5469 12.6512 95.4907 11.4759 97.8283 11.4759V11.4851ZM96.4544 16.4611C96.4544 17.8766 96.9734 18.844 97.8537 18.844C98.7341 18.844 99.2299 17.8766 99.2299 16.4611C99.2299 15.0457 98.7318 14.0459 97.8537 14.0459C96.9757 14.0459 96.4544 14.9741 96.4544 16.4611Z" fill="white"/>
<path d="M43.1605 15.9578C43.1605 19.3313 41.7427 21.4486 39.0437 21.4486C36.3447 21.4486 37.1324 20.9684 36.4629 20.1071V24.3673H33.7037C33.0179 24.3673 32.4619 23.8131 32.4619 23.1296V11.686H35.0729C35.7517 11.686 36.3308 12.1756 36.442 12.8429C37.0791 11.9816 37.9711 11.4344 39.0414 11.4344C41.5713 11.4344 43.1582 13.5494 43.1582 15.9578H43.1605ZM36.3471 16.3965C36.3471 17.7819 36.9401 18.814 37.7695 18.814C38.5989 18.814 39.1596 17.7819 39.1596 16.3965C39.1596 15.0111 38.5989 13.9374 37.7695 13.9374C36.9401 13.9374 36.3471 14.9418 36.3471 16.3965Z" fill="white"/>
<path d="M79.3362 11.686C80.103 11.686 80.7262 12.3072 80.7262 13.0714V21.1323H77.967C77.2812 21.1323 76.7252 20.5781 76.7252 19.8946V11.686H79.3362Z" fill="white"/>
<path d="M71.3412 18.9502C71.8439 18.8602 72.0524 18.1444 71.23 17.925C68.9295 17.3408 66.6336 16.7174 66.6336 14.607C66.6336 11.2196 72.1034 11.0441 73.8664 11.8223C74.6193 12.1594 75.0525 12.3834 75.3236 12.9722C75.6526 13.6903 75.2263 14.7155 74.5938 15.0965C73.4957 14.0528 71.6261 13.9096 71.1326 14.032C70.6739 14.1636 70.4678 14.5146 70.8338 14.7847C71.6354 15.3551 73.4123 15.0549 74.8996 16.3064C75.9329 17.2231 76.1159 18.6131 75.1753 19.9223C74.2903 21.1554 69.8191 22.5062 66.1517 20.1071L67.3309 17.8742C68.8391 18.9526 69.9928 19.1811 71.3435 18.9456L71.3412 18.9502Z" fill="white"/>
</g>
<defs>
<clipPath id="clip0_5433_2">
<rect width="104" height="31.5714" fill="white"/>
</clipPath>
</defs>
</svg>
