<svg width="16" height="16" viewBox="0 0 16 16" fill="none" xmlns="http://www.w3.org/2000/svg">
<path d="M8.94186 8.64348H13.8597C14.0982 8.64348 14.3068 8.43484 14.3068 8.1964V7.30224C14.3068 7.0638 14.0982 6.85516 13.8597 6.85516H8.94186C8.76303 6.85516 8.64381 6.73594 8.64381 6.55711V1.63922C8.64381 1.40078 8.43517 1.19214 8.19673 1.19214H7.30257C7.06412 1.19214 6.85549 1.40078 6.85549 1.63922V6.55711C6.85549 6.73594 6.73626 6.85516 6.55743 6.85516H1.63955C1.4011 6.85516 1.19246 7.0638 1.19246 7.30224V8.1964C1.19246 8.43484 1.4011 8.64348 1.63955 8.64348H6.55743C6.73626 8.64348 6.85549 8.7627 6.85549 8.94154V13.8594C6.85549 14.0979 7.06412 14.3065 7.30257 14.3065H8.19673C8.43517 14.3065 8.64381 14.0979 8.64381 13.8594V8.94154C8.64381 8.7627 8.76303 8.64348 8.94186 8.64348Z" fill="#747474"/>
</svg>
