<svg width="16" height="16" viewBox="0 0 16 16" fill="none" xmlns="http://www.w3.org/2000/svg">
<path fill-rule="evenodd" clip-rule="evenodd" d="M11.3698 10.5507C12.2024 9.54183 12.7024 8.24926 12.7024 6.84012C12.7024 3.61471 10.0827 1 6.8512 1C3.61967 1 1 3.61471 1 6.84012C1 10.0655 3.61967 12.6802 6.8512 12.6802C8.24944 12.6802 9.53314 12.1907 10.5396 11.374L14.0011 14.8289C14.2296 15.057 14.6001 15.057 14.8286 14.8289C15.0571 14.6009 15.0571 14.2311 14.8286 14.003L11.3698 10.5507ZM11.5322 6.84012C11.5322 9.42044 9.43642 11.5122 6.8512 11.5122C4.26598 11.5122 2.17024 9.42044 2.17024 6.84012C2.17024 4.25979 4.26598 2.16802 6.8512 2.16802C9.43642 2.16802 11.5322 4.25979 11.5322 6.84012Z" fill="white"/>
</svg>
