<svg width="25" height="25" viewBox="0 0 25 25" fill="none" xmlns="http://www.w3.org/2000/svg">
<path d="M23.1302 14.5534C23.1302 15.6641 19.0854 21.2247 12.5991 19.775V16.5595C12.5991 16.4191 12.7068 16.3358 12.7698 16.3893C13.6375 17.126 14.5739 17.4495 15.3383 17.4495C17.4913 17.4495 19.0366 16.156 19.7265 13.5429C20.0087 13.5228 20.3765 13.5135 20.6329 13.5167C22.1223 13.5355 23.1302 14.1948 23.1302 14.5534Z" fill="#91BC31"/>
<path d="M15.518 11.8772C15.518 13.7747 14.8408 14.6472 13.9148 14.6472C12.9055 14.6472 12.2681 13.4257 12.2681 11.8772C12.2681 10.1262 12.9221 9.12648 13.9148 9.12648C14.8408 9.12648 15.518 9.84797 15.518 11.8772Z" fill="#EDA106"/>
<path d="M16.19 6.40068C15.9797 6.36458 15.7562 6.34311 15.5125 6.34311C14.3152 6.34311 13.5619 6.68314 12.6425 7.77363C12.3315 7.17079 11.7614 6.60018 10.9287 6.59955H8.03635V18.2816C3.0071 15.3324 1.66437 9.90856 1.96225 8.17935C3.73953 8.30746 4.92112 8.74666 6.08149 9.53454C7.17016 2.61472 13.194 0 14.437 0C15.1067 0 16.0343 3.45601 16.19 6.40068Z" fill="#EDA106"/>
<path d="M5.60423 4.58972C6.18858 6.1542 5.38849 8.01692 5.38849 8.01692C5.38849 8.01692 3.65707 7.57646 2.91528 5.5906C2.24714 3.80167 3.16638 2.19864 3.16638 2.19864C3.16638 2.19864 4.886 2.66682 5.60423 4.58972Z" fill="#EDA106"/>
<path d="M11.1718 24.8708C3.31117 23.6067 2.09741 16.5125 2.09741 15.7315C2.09741 15.2882 2.63105 15.1176 2.9639 15.6081C5.20141 18.9044 8.88849 20.799 12.8538 21.2299C18.6295 21.8575 21.3932 18.3938 21.6989 19.533C21.9047 20.2997 17.671 25.916 11.1718 24.8708Z" fill="#62960C"/>
<path d="M22.5066 5.40811C22.7022 6.13689 23.6872 9.61551 19.9343 12.7112C19.9343 10.2389 19.6255 9.18205 19.1342 8.43414C18.0897 6.84427 17.0195 7.05305 17.0195 5.20593C17.0195 3.83873 17.9767 2.73036 19.4994 2.73036C21.1221 2.73036 22.208 4.29581 22.5066 5.40811Z" fill="#73A7E3"/>
</svg>
